# xmcd
#
# Track frame offsets: 
#        150
#        19649
#        35597
#        54843
#        79370
#        98874
#
# Disc length: 1597 seconds
#
# Revision: 0
# Processed by: cddbd v1.5.2PL0 Copyright (c) Steve Scherf et al.
# Submitted via: ExactAudioCopy v0.95b4
#
DISCID=40063b06
DTITLE=Homyra - Mahtabe Eshgh
DYEAR=2004
DGENRE=Acid
TTITLE0=Bi Niazi
TTITLE1=Peleh Peleh
TTITLE2=Aman Az Darde Duri
TTITLE3=Mahtabe Eshgh
TTITLE4=Dele Ashegh
TTITLE5=Lahzehe Khodahafezi
EXTD=
EXTT0=
EXTT1=
EXTT2=
EXTT3=
EXTT4=
EXTT5=
PLAYORDER=
